HIERARCHY
ROOT ui
{
	 OFFSET 0 0 0
	 CHANNELS 3 XPosition YPosition Z Position
	 EndSite
	 {
	 OFFSET 0 -1 0
	 }
}
ROOT li
{
	 OFFSET 0 0 0
	 CHANNELS 3 XPosition YPosition Z Position
	 EndSite
	 {
	 OFFSET 0 -1 0
	 }
}
ROOT ul
{
	 OFFSET 0 0 0
	 CHANNELS 3 XPosition YPosition Z Position
	 EndSite
	 {
	 OFFSET 0 -1 0
	 }
}
ROOT ll
{
	 OFFSET 0 0 0
	 CHANNELS 3 XPosition YPosition Z Position
	 EndSite
	 {
	 OFFSET 0 -1 0
	 }
}
ROOT tt
{
	 OFFSET 0 0 0
	 CHANNELS 3 XPosition YPosition Z Position
	 EndSite
	 {
	 OFFSET 0 -1 0
	 }
}
ROOT tb
{
	 OFFSET 0 0 0
	 CHANNELS 3 XPosition YPosition Z Position
	 EndSite
	 {
	 OFFSET 0 -1 0
	 }
}
ROOT td
{
	 OFFSET 0 0 0
	 CHANNELS 3 XPosition YPosition Z Position
	 EndSite
	 {
	 OFFSET 0 -1 0
	 }
}
ROOT v
{
	 OFFSET 0 0 0
	 CHANNELS 3 XPosition YPosition Z Position
	 EndSite
	 {
	 OFFSET 0 -1 0
	 }
}
ROOT bn
{
	 OFFSET 0 0 0
	 CHANNELS 3 XPosition YPosition Z Position
	 EndSite
	 {
	 OFFSET 0 -1 0
	 }
}
MOTION
Frames: 13
Frame Time: 0.002
-0.016567108154296874	1.7445600032806396E-4	0		0.5777866821289063	-2.5646103515625	0		-0.9639674072265625	0.053255722045898436	0		-0.5513383178710938	-2.56721728515625	0		1.4381087646484374	-0.89744189453125	0		3.162650390625	-0.23837190246582032	0		4.7197294921875	-0.08520826721191406	0		5.6218388671875	0.2005485382080078	0		-0.26629238891601564	5.906837890625	0		
0.053966407775878904	-0.00571220588684082	0		0.585153564453125	-2.57172412109375	0		-1.031483642578125	0.04419048309326172	0		-0.610850830078125	-2.564409423828125	0		1.251765869140625	-0.8881217041015625	0		3.165150146484375	-0.24556887817382814	0		4.7253017578125	-0.08753282165527344	0		5.6258017578125	0.19471572875976562	0		-0.28631234741210937	5.9101298828125	0		
0.0656015625	1.5229199826717377E-4	0		0.5876473388671875	-2.564776123046875	0		-0.985951171875	0.041683792114257816	0		-0.5275562744140625	-2.5734296875	0		1.322175537109375	-0.8960875244140625	0		3.175951171875	-0.22588058471679687	0		4.72185595703125	-0.0877569808959961	0		5.6233408203125	0.19424159240722655	0		-0.2752554931640625	5.92102734375	0		
0.05320354461669922	0.0013264110088348389	0		0.5741915893554688	-2.55562255859375	0		-0.9952951049804688	0.04688491439819336	0		-0.5790093994140625	-2.56371484375	0		1.3127984619140625	-0.8890316772460938	0		3.156423095703125	-0.233810791015625	0		4.71354248046875	-0.07992794036865235	0		5.61324951171875	0.23031828308105468	0		-0.27547613525390624	5.90706884765625	0		
0.04988004302978516	0.0013849749565124512	0		0.5926109619140625	-2.562882568359375	0		-0.9986156616210937	0.04701085662841797	0		-0.5614865112304688	-2.562888671875	0		1.3063660888671875	-0.8930147705078125	0		3.15308447265625	-0.2339516296386719	0		4.70613623046875	-0.08611636352539062	0		5.6121318359375	0.19862799072265624	0		-0.2774332275390625	5.9061357421875	0		
0.040599449157714844	-0.0054781179428100586	0		0.5632842407226563	-2.560520263671875	0		-1.0407860107421876	0.04864554214477539	0		-0.5997994384765625	-2.55933447265625	0		1.30311865234375	-0.8930377807617188	0		3.158852783203125	-0.23621107482910156	0		4.7078359375	-0.09442320251464843	0		5.609849609375	0.19811677551269533	0		-0.14794012451171876	5.9284892578125	0		
-0.03635031509399414	5.49452006816864E-4	0		0.560099609375	-2.56049658203125	0		-0.998886962890625	0.04218169021606445	0		-0.5571322021484375	-2.570839111328125	0		1.3000404052734376	-0.8930611572265625	0		3.140935546875	-0.22715670776367186	0		4.70888671875	-0.08871659851074219	0		5.6076875	0.1976103057861328	0		-0.28767678833007815	5.9223564453125	0		
0.04084465789794922	0.00155479097366333	0		0.5342227783203125	-2.552171142578125	0		-1.0425865478515626	0.05184161376953125	0		-0.6269795532226563	-2.559864013671875	0		1.303251953125	-0.8861641845703125	0		3.15113525390625	-0.2244665985107422	0		4.694255859375	-0.07379586791992188	0		5.60788134765625	0.21088386535644532	0		-0.2901314697265625	5.9224326171875	0		
0.03824261474609375	0.001608111023902893	0		0.5823552856445312	-2.560822509765625	0		-1.0102415771484374	0.04749752807617187	0		-0.5598226928710938	-2.56669677734375	0		1.300595947265625	-0.8861875	0		3.15158544921875	-0.21964224243164063	0		4.70344921875	-0.08918259429931641	0		5.599619140625	0.21406600952148438	0		-0.29336080932617187	5.92351904296875	0		
0.0358831787109375	0.001659183979034424	0		0.5538882446289063	-2.55745751953125	0		-1.0125983276367188	0.04760989379882812	0		-0.5742514038085937	-2.56045166015625	0		1.4190009765625	-0.9008185424804688	0		3.15511962890625	-0.22685235595703124	0		4.68520556640625	-0.08019221496582031	0		5.59793017578125	0.21360050964355468	0		-0.12801638793945314	5.94936572265625	0		
0.030738500595092772	-0.0012524420022964478	0		0.5755713500976563	-2.562758544921875	0		-1.01470068359375	0.047716548919677734	0		-0.5785260009765625	-2.562342529296875	0		1.28403125	-0.8860724487304688	0		3.144029296875	-0.22485867309570312	0		4.698974609375	-0.0896170425415039	0		5.60060693359375	0.19571678161621095	0		-0.27721640014648435	5.91838916015625	0		
0.036863529205322265	-0.003315355062484741	0		0.5325772094726563	-2.563193603515625	0		-1.044556396484375	0.0471922721862793	0		-0.5577136840820313	-2.577572998046875	0		1.2880419921875	-0.8931751098632813	0		3.135143798828125	-0.226886962890625	0		4.68613671875	-0.08867514038085937	0		5.599283203125	0.1952855682373047	0		-0.296705322265625	5.92169091796875	0		
0.03526804351806641	-0.003276287078857422	0		0.5499559936523437	-2.5554365234375	0		-1.03616357421875	0.046152450561523437	0		-0.6232742919921875	-2.564642822265625	0		1.2295943603515624	-0.878434326171875	0		3.16858740234375	-0.22347886657714844	0		4.6886171875	-0.0829296875	0		5.60452978515625	0.1894664306640625	0		-0.2828761291503906	5.93054443359375	0		
